<?xml version="1.0" standalone="no"?>
<!DOCTYPE svg PUBLIC "-//W3C//DTD SVG 20010904//EN"
 "http://www.w3.org/TR/2001/REC-SVG-20010904/DTD/svg10.dtd">
<svg version="1.0" xmlns="http://www.w3.org/2000/svg"
 width="500.000000pt" height="500.000000pt" viewBox="0 0 500.000000 500.000000"
 preserveAspectRatio="xMidYMid meet">
<g transform="translate(0.000000,500.000000) scale(0.100000,-0.100000)"
fill="#FFFFFF" stroke="none">
<path d="M2146 3873 c-8 -8 -365 -15 -618 -13 -111 1 -142 -1 -160 -14 -13
-10 -43 -16 -74 -16 -67 0 -102 -28 -128 -101 -24 -65 -28 -225 -7 -239 11 -6
12 -28 7 -105 -4 -54 -12 -109 -17 -123 -6 -15 -10 -56 -10 -92 0 -53 -7 -340
-9 -415 -1 -11 4 -72 11 -137 10 -94 10 -135 -1 -216 -9 -70 -10 -124 -4 -179
5 -43 9 -175 9 -293 1 -140 6 -237 14 -278 12 -52 12 -73 1 -117 -17 -70 -8
-260 14 -303 21 -40 61 -70 100 -76 17 -2 122 -9 233 -15 173 -10 208 -9 238
3 31 13 45 13 123 0 95 -17 213 -13 403 12 28 4 75 0 124 -11 64 -15 96 -16
174 -9 53 5 156 7 229 6 77 -2 162 2 202 9 59 10 74 10 109 -5 35 -13 52 -14
114 -5 101 15 244 23 367 21 92 -2 111 1 155 22 28 13 57 31 65 40 9 12 20 89
33 244 23 278 24 319 6 405 -12 60 -11 74 3 113 13 37 14 57 5 124 -8 62 -8
88 3 119 9 29 11 66 6 133 -9 111 -23 944 -18 1043 1 22 -1 112 -5 200 -9 174
-16 197 -70 232 -35 23 -295 32 -355 12 -28 -9 -41 -9 -51 0 -11 8 -22 9 -41
1 -42 -16 -108 -12 -202 12 -85 21 -88 22 -169 5 -101 -21 -159 -21 -294 -2
-81 12 -118 13 -165 4 -43 -7 -92 -7 -165 0 -121 13 -175 14 -185 4z m-400
-149 c30 -13 57 -14 133 -9 53 3 137 6 186 6 98 -1 322 1 560 3 l150 1 0 -89
0 -89 -89 -24 c-48 -12 -120 -40 -160 -60 -109 -57 -224 -181 -251 -272 l-7
-24 31 22 c59 42 165 83 290 112 69 15 140 32 157 37 57 18 169 23 241 13 159
-23 263 -91 298 -195 16 -46 17 -61 7 -112 -7 -32 -16 -62 -21 -67 -5 -5 -23
11 -41 38 -47 68 -96 112 -165 145 -104 51 -174 65 -335 65 -133 0 -153 -2
-235 -29 -305 -98 -473 -398 -450 -806 7 -132 29 -280 45 -311 8 -14 18 -17
43 -12 50 9 123 42 146 67 19 21 20 24 6 101 -77 441 49 733 343 794 104 22
237 9 312 -29 139 -72 175 -229 60 -260 -22 -6 -40 -13 -40 -16 0 -19 35 -66
58 -78 99 -51 242 -3 283 95 6 16 15 29 20 29 5 0 29 -13 54 -29 60 -38 112
-47 159 -27 20 8 36 17 36 20 0 3 -13 12 -29 21 -69 35 -91 124 -66 262 14 76
15 101 5 150 -40 191 -147 294 -364 351 -82 21 -111 33 -117 48 -11 27 -11
108 0 137 10 24 11 25 153 26 79 0 220 2 315 3 176 2 214 -4 228 -39 9 -24 29
-205 26 -238 -1 -16 -2 -111 -1 -210 5 -422 4 -497 -7 -620 -12 -139 -4 -289
18 -363 11 -35 11 -50 0 -90 -10 -34 -13 -104 -11 -252 5 -439 4 -515 -9 -552
-7 -21 -16 -38 -20 -38 -5 0 -25 -11 -44 -25 -35 -23 -40 -24 -119 -15 -87 10
-337 6 -376 -6 -12 -3 -28 -2 -35 3 -25 20 -84 23 -173 8 -76 -13 -115 -14
-218 -6 -84 6 -146 6 -193 -1 -37 -5 -180 -11 -318 -12 -137 -1 -256 -5 -263
-10 -7 -4 -41 -5 -75 0 -34 4 -168 7 -298 8 -273 1 -270 0 -290 92 -9 42 -9
66 1 114 14 68 8 169 -15 223 -13 31 -13 40 1 72 19 46 20 88 4 188 -9 54 -10
108 -5 175 10 113 10 140 0 327 -4 77 -7 149 -7 160 1 11 5 92 9 180 4 88 5
194 2 235 -4 41 -10 113 -15 158 -8 91 9 342 29 432 17 75 36 84 197 86 69 1
136 6 150 12 36 15 62 14 106 -4z"/>
<path d="M1444 3558 c-4 -5 13 -28 38 -49 71 -60 85 -105 104 -331 11 -133 16
-331 18 -638 2 -541 -5 -676 -38 -784 -22 -71 -31 -85 -80 -130 -55 -51 -56
-51 -58 -114 -1 -34 3 -67 9 -73 8 -8 87 -8 280 0 147 6 309 9 358 6 223 -12
445 -15 445 -5 0 5 -6 10 -13 10 -24 0 -177 101 -238 158 l-62 57 -208 0
c-114 0 -211 3 -214 7 -4 4 0 36 9 72 9 36 16 75 16 87 0 24 1 24 100 -7 88
-27 275 -22 367 9 201 69 326 206 357 392 9 54 14 182 14 398 l1 317 -25 0
c-27 0 -86 -28 -120 -57 -54 -45 -55 -51 -58 -344 -3 -311 -9 -346 -78 -424
-94 -107 -321 -156 -446 -98 -36 17 -76 77 -88 133 -4 19 -7 271 -6 560 1 556
5 618 50 720 20 46 36 65 85 101 15 11 25 25 22 29 -8 14 -533 12 -541 -2z"/>
<path d="M3085 2324 c-69 -36 -90 -84 -37 -84 60 0 97 -79 67 -143 -59 -125
-286 -157 -393 -56 -18 17 -34 30 -36 28 -1 -2 -17 -27 -34 -55 -18 -28 -41
-62 -52 -74 -27 -31 -26 -35 13 -59 150 -92 380 -106 526 -32 21 11 63 43 94
71 l56 51 7 -46 c13 -92 -54 -193 -161 -244 -27 -13 -87 -30 -133 -39 -81 -14
-89 -14 -194 7 -133 27 -192 52 -282 120 l-69 52 -46 -19 c-25 -11 -70 -27
-98 -37 -29 -9 -53 -20 -53 -24 0 -15 100 -110 164 -156 220 -156 555 -192
794 -84 75 33 175 125 207 189 48 96 58 146 50 244 -11 140 -7 195 18 246 12
25 33 50 47 57 37 18 30 36 -19 52 -52 16 -103 5 -149 -34 -38 -32 -46 -31
-68 3 -26 39 -39 51 -78 67 -46 19 -103 19 -141 -1z"/>
</g>
</svg>
